<svg xmlns="http://www.w3.org/2000/svg" width="96.397" height="73.329" viewBox="0 0 96.397 73.329">
  <defs>
    <style>
      .cls-1, .cls-2 {
        fill: none;
      }

      .cls-1 {
        stroke: #707070;
        stroke-width: 2px;
      }

      .cls-3, .cls-4 {
        stroke: none;
      }

      .cls-4 {
        fill: #707070;
      }
    </style>
  </defs>
  <g id="组_7" data-name="组 7" transform="translate(-1013.202 -181.671)">
    <path id="路径_3" data-name="路径 3" class="cls-1" d="M1032.348,332.84h-5.03s-6.232-.688-6.114-6.9,0-37.771,0-37.771,0-7.5,6.114-7.5h47.633s5.325,1.972,5.325,7.5v37.771s.617,6.9-4.142,6.9h-8.876" transform="translate(-7 -98)"/>
    <path id="路径_4" data-name="路径 4" class="cls-1" d="M1080.3,292.7h15.852l15.878,13.314s3.809,3.12,3.55,5.621,0,20.02,0,20.02h-4.832" transform="translate(-7 -98)"/>
    <g id="路径_8" data-name="路径 8" class="cls-2" transform="translate(1029 227)">
      <path class="cls-3" d="M14,0A14,14,0,1,1,0,14,14,14,0,0,1,14,0Z"/>
      <path class="cls-4" d="M 14 2 C 10.79467964172363 2 7.781219482421875 3.248220443725586 5.514720916748047 5.514720916748047 C 3.248220443725586 7.781219482421875 2 10.79467964172363 2 14 C 2 17.2053108215332 3.248220443725586 20.21878051757813 5.514720916748047 22.48527908325195 C 7.781219482421875 24.75177955627441 10.79467964172363 26 14 26 C 17.2053108215332 26 20.21878051757813 24.75177955627441 22.48527908325195 22.48527908325195 C 24.75177955627441 20.21878051757813 26 17.2053108215332 26 14 C 26 10.79467964172363 24.75177955627441 7.781219482421875 22.48527908325195 5.514720916748047 C 20.21878051757813 3.248220443725586 17.2053108215332 2 14 2 M 14 0 C 21.73197937011719 0 28 6.268009185791016 28 14 C 28 21.73197937011719 21.73197937011719 28 14 28 C 6.268009185791016 28 0 21.73197937011719 0 14 C 0 6.268009185791016 6.268009185791016 0 14 0 Z"/>
    </g>
    <g id="路径_9" data-name="路径 9" class="cls-2" transform="translate(1073 227)">
      <path class="cls-3" d="M14,0A14,14,0,1,1,0,14,14,14,0,0,1,14,0Z"/>
      <path class="cls-4" d="M 14 2 C 10.79467964172363 2 7.781219482421875 3.248220443725586 5.514720916748047 5.514720916748047 C 3.248220443725586 7.781219482421875 2 10.79467964172363 2 14 C 2 17.2053108215332 3.248220443725586 20.21878051757813 5.514720916748047 22.48527908325195 C 7.781219482421875 24.75177955627441 10.79467964172363 26 14 26 C 17.2053108215332 26 20.21878051757813 24.75177955627441 22.48527908325195 22.48527908325195 C 24.75177955627441 20.21878051757813 26 17.2053108215332 26 14 C 26 10.79467964172363 24.75177955627441 7.781219482421875 22.48527908325195 5.514720916748047 C 20.21878051757813 3.248220443725586 17.2053108215332 2 14 2 M 14 0 C 21.73197937011719 0 28 6.268009185791016 28 14 C 28 21.73197937011719 21.73197937011719 28 14 28 C 6.268009185791016 28 0 21.73197937011719 0 14 C 0 6.268009185791016 6.268009185791016 0 14 0 Z"/>
    </g>
  </g>
</svg>
